<?xml version="1.0" encoding="UTF-8" standalone="no"?>
<svg
   xmlns:dc="http://purl.org/dc/elements/1.1/"
   xmlns:cc="http://creativecommons.org/ns#"
   xmlns:rdf="http://www.w3.org/1999/02/22-rdf-syntax-ns#"
   xmlns:svg="http://www.w3.org/2000/svg"
   xmlns="http://www.w3.org/2000/svg"
   xmlns:xlink="http://www.w3.org/1999/xlink"
   xmlns:sodipodi="http://sodipodi.sourceforge.net/DTD/sodipodi-0.dtd"
   xmlns:inkscape="http://www.inkscape.org/namespaces/inkscape"
   width="1000"
   height="1000"
   viewBox="0 0 264.58333 264.58334"
   version="1.1"
   id="svg4010"
   inkscape:version="1.0.2 (e86c870879, 2021-01-15)"
   sodipodi:docname="Schalen-Modell-3D.svg">
  <defs
     id="defs4004">
    <radialGradient
       inkscape:collect="always"
       xlink:href="#linearGradient5662"
       id="radialGradient6107"
       gradientUnits="userSpaceOnUse"
       gradientTransform="matrix(1.3898108e-6,-1.8167478,0.90837402,1.4828662e-6,21.322119,579.55683)"
       cx="228.56654"
       cy="177.87758"
       fx="228.56654"
       fy="177.87758"
       r="52.916679" />
    <linearGradient
       inkscape:collect="always"
       id="linearGradient5662">
      <stop
         style="stop-color:#007702;stop-opacity:1"
         offset="0"
         id="stop5658" />
      <stop
         style="stop-color:#80c980;stop-opacity:1"
         offset="1"
         id="stop5660" />
    </linearGradient>
    <radialGradient
       inkscape:collect="always"
       xlink:href="#linearGradient1423"
       id="radialGradient6109"
       gradientUnits="userSpaceOnUse"
       gradientTransform="matrix(5.0694818,0,0,6.8664495,375.86827,5931.2413)"
       cx="228.56654"
       cy="164.30925"
       fx="228.56654"
       fy="164.30925"
       r="52.916679" />
    <linearGradient
       inkscape:collect="always"
       id="linearGradient1423">
      <stop
         style="stop-color:#00c703;stop-opacity:1"
         offset="0"
         id="stop1419" />
      <stop
         style="stop-color:#e3e3e3;stop-opacity:1"
         offset="1"
         id="stop1421" />
    </linearGradient>
    <radialGradient
       inkscape:collect="always"
       xlink:href="#linearGradient1415"
       id="radialGradient6111"
       gradientUnits="userSpaceOnUse"
       gradientTransform="matrix(6.8664496,0,0,6.8664496,-34.858394,5931.2413)"
       cx="228.56654"
       cy="164.30925"
       fx="228.56654"
       fy="164.30925"
       r="39.687508" />
    <linearGradient
       inkscape:collect="always"
       id="linearGradient1415">
      <stop
         style="stop-color:#13009e;stop-opacity:1"
         offset="0"
         id="stop1411" />
      <stop
         style="stop-color:#ffffff;stop-opacity:1"
         offset="1"
         id="stop1413" />
    </linearGradient>
    <radialGradient
       inkscape:collect="always"
       xlink:href="#linearGradient1407"
       id="radialGradient6113"
       gradientUnits="userSpaceOnUse"
       gradientTransform="matrix(6.8664496,0,0,6.8664496,-34.858394,5931.2413)"
       cx="228.56654"
       cy="164.30925"
       fx="228.56654"
       fy="164.30925"
       r="26.458338" />
    <linearGradient
       inkscape:collect="always"
       id="linearGradient1407">
      <stop
         style="stop-color:#660000;stop-opacity:1"
         offset="0"
         id="stop1403" />
      <stop
         style="stop-color:#ffffff;stop-opacity:1"
         offset="1"
         id="stop1405" />
    </linearGradient>
    <radialGradient
       inkscape:collect="always"
       xlink:href="#linearGradient5893"
       id="radialGradient6115"
       gradientUnits="userSpaceOnUse"
       gradientTransform="matrix(6.8664496,0,0,6.8664496,-34.858394,5931.2411)"
       cx="228.56654"
       cy="164.30925"
       fx="228.56654"
       fy="164.30925"
       r="13.229167" />
    <linearGradient
       inkscape:collect="always"
       id="linearGradient5893">
      <stop
         style="stop-color:#000000;stop-opacity:1"
         offset="0"
         id="stop5889" />
      <stop
         style="stop-color:#808080;stop-opacity:1"
         offset="1"
         id="stop5891" />
    </linearGradient>
  </defs>
  <sodipodi:namedview
     id="base"
     pagecolor="#ffffff"
     bordercolor="#666666"
     borderopacity="1.0"
     inkscape:pageopacity="0.0"
     inkscape:pageshadow="2"
     inkscape:zoom="0.49497475"
     inkscape:cx="246.91184"
     inkscape:cy="596.70174"
     inkscape:document-units="px"
     inkscape:current-layer="layer1"
     inkscape:document-rotation="0"
     showgrid="false"
     units="px"
     inkscape:window-width="1920"
     inkscape:window-height="1006"
     inkscape:window-x="0"
     inkscape:window-y="0"
     inkscape:window-maximized="1" />
  <metadata
     id="metadata4007">
    <rdf:RDF>
      <cc:Work
         rdf:about="">
        <dc:format>image/svg+xml</dc:format>
        <dc:type
           rdf:resource="http://purl.org/dc/dcmitype/StillImage" />
        <dc:title></dc:title>
      </cc:Work>
    </rdf:RDF>
  </metadata>
  <g
     inkscape:label="Layer 1"
     inkscape:groupmode="layer"
     id="layer1">
    <g
       id="g6105"
       transform="matrix(1.3917267,0,0,1.3917267,-185.81047,-96.382021)"
       inkscape:export-xdpi="96"
       inkscape:export-ydpi="96">
      <ellipse
         style="opacity:1;fill:url(#radialGradient6107);fill-opacity:1;stroke:#000000;stroke-width:2.64585;stroke-linecap:round;paint-order:stroke fill markers"
         id="ellipse5969"
         cx="228.56653"
         cy="164.30925"
         rx="93.732857"
         ry="93.732834" />
      <path
         id="path5971"
         style="opacity:1;fill:url(#radialGradient6109);fill-opacity:1;stroke:#000000;stroke-width:10.0001;stroke-linecap:round;paint-order:stroke fill markers"
         d="m 1533.8867,6705.1973 a 261.5536,354.26584 0 0 0 -260.8574,354.2656 261.5536,354.26584 0 0 0 261.3516,354.2656 261.5536,354.26584 0 0 0 0.2011,0 354.26592,354.26584 0 0 0 354.2657,-354.2656 354.26592,354.26584 0 0 0 -354.2657,-354.2656 261.5536,354.26584 0 0 0 -0.2011,0 261.5536,354.26584 0 0 0 -0.4942,0 z"
         transform="matrix(0.26458334,0,0,0.26458334,-177.45835,-1703.5068)" />
      <path
         id="path5973"
         style="opacity:1;fill:url(#radialGradient6111);fill-opacity:1;stroke:#000000;stroke-width:10.0001;stroke-linecap:round;paint-order:stroke fill markers"
         d="m 1534.3281,6796.0332 a 263.42847,263.42844 0 0 0 -0.2949,0 172.52081,263.42845 0 0 0 -171.9707,263.4277 172.52081,263.42845 0 0 0 171.9707,263.4258 263.42847,263.42844 0 0 0 0.5488,0 263.42847,263.42844 0 0 0 263.4278,-263.4277 263.42847,263.42844 0 0 0 -263.4278,-263.4297 263.42847,263.42844 0 0 0 -0.2539,0 z"
         transform="matrix(0.26458334,0,0,0.26458334,-177.45835,-1703.5068)" />
      <path
         id="path5975"
         style="opacity:1;fill:url(#radialGradient6113);fill-opacity:1;stroke:#000000;stroke-width:10.0001;stroke-linecap:round;paint-order:stroke fill markers"
         d="m 1534.1328,6886.8711 a 172.59108,172.59103 0 0 0 -6.7734,0.1504 v 0.2363 a 107.92252,172.59103 0 0 0 -100.7012,172.2051 107.92252,172.59103 0 0 0 100.7012,172.2012 v 0.2382 a 172.59108,172.59103 0 0 0 7.1406,0.1504 172.59108,172.59103 0 0 0 0.082,0 172.59108,172.59103 0 0 0 172.5918,-172.5898 172.59108,172.59103 0 0 0 -172.5918,-172.5918 172.59108,172.59103 0 0 0 -0.2812,0 172.59108,172.59103 0 0 0 -0.168,0 z"
         transform="matrix(0.26458334,0,0,0.26458334,-177.45835,-1703.5068)" />
      <path
         id="path6103"
         style="opacity:1;fill:url(#radialGradient6115);fill-opacity:1;stroke:#000000;stroke-width:9.99999;stroke-linecap:round;paint-order:stroke fill markers"
         d="m 1534.582,6977.709 a 45.634227,81.753673 0 0 0 -45.6347,81.7539 45.634227,81.753673 0 0 0 45.6347,81.7539 81.753673,81.753673 0 0 0 81.7539,-81.7539 81.753673,81.753673 0 0 0 -81.7539,-81.7539 z"
         transform="matrix(0.26458334,0,0,0.26458334,-177.45835,-1703.5068)" />
      <text
         xml:space="preserve"
         style="font-size:13.2292px;line-height:1.55;font-family:'Noto Sans';-inkscape-font-specification:'Noto Sans';letter-spacing:0px;word-spacing:0px;stroke-width:0.264583"
         x="250.45087"
         y="149.16806"
         id="text3303"><tspan
           sodipodi:role="line"
           id="tspan3301"
           x="250.45087"
           y="149.16806"
           style="font-size:13.2292px;stroke-width:0.264583">K</tspan></text>
      <text
         xml:space="preserve"
         style="font-size:13.2292px;line-height:1.55;font-family:'Noto Sans';-inkscape-font-specification:'Noto Sans';letter-spacing:0px;word-spacing:0px;stroke-width:0.264583"
         x="268.96201"
         y="133.78372"
         id="text3307"><tspan
           sodipodi:role="line"
           id="tspan3305"
           x="268.96201"
           y="133.78372"
           style="font-size:13.2292px;stroke-width:0.264583">L</tspan></text>
      <text
         xml:space="preserve"
         style="font-size:13.2292px;line-height:1.55;font-family:'Noto Sans';-inkscape-font-specification:'Noto Sans';letter-spacing:0px;word-spacing:0px;stroke-width:0.264583"
         x="288.06555"
         y="117.24538"
         id="text3299"><tspan
           sodipodi:role="line"
           id="tspan3297"
           x="288.06555"
           y="117.24538"
           style="font-size:13.2292px;stroke-width:0.264583">M</tspan></text>
    </g>
  </g>
</svg>
